<svg width="4181" height="2601" viewBox="0 0 4181 2601" fill="none" xmlns="http://www.w3.org/2000/svg">
<path d="M3047.76 33.8005C3276.41 -58.0175 3536.65 48.4421 3635.39 274.195V274.195L3816.62 691.416C3851.15 770.911 3907.7 838.873 3979.58 887.288V887.288C4263.83 1078.72 4241.97 1503.92 3939.59 1665.18L3911.15 1680.35C3883.45 1695.12 3857.29 1712.61 3833.05 1732.56L3577.95 1942.49C3498.38 2007.96 3411.2 2063.59 3318.3 2108.17L3103.03 2211.45C2991.6 2264.91 2873.02 2301.95 2750.98 2321.42L2260.67 2399.63L1656.53 2561.61C1512.55 2600.21 1362.45 2610.52 1214.54 2591.96L615.276 2516.77C149.491 2458.32 -128.783 1967.99 59.8757 1538.13V1538.13C159.429 1311.3 371.164 1153.73 617.03 1123.51L1217.34 1049.72C1288.7 1040.95 1357.13 1016.04 1417.44 976.879L1488.03 931.039C1526.61 905.984 1572.18 893.882 1618.11 896.49L1627.08 897C1654.28 898.545 1681.46 893.818 1706.54 883.185V883.185C1750.45 864.565 1785.04 829.072 1802.52 784.69L1807.67 771.607C1821.24 737.154 1843.62 706.873 1872.59 683.8L1920.31 645.779C1942.07 628.44 1965.44 613.208 1990.08 600.289L2084.54 550.775C2123.22 530.504 2155.54 499.942 2177.93 462.462L2230.6 374.342C2248.74 343.98 2283.61 327.799 2318.51 333.541L2324.81 334.578C2368.1 341.699 2409 312.509 2416.33 269.262V269.262C2423.21 228.744 2459.76 200.095 2500.75 203.102L2570.58 208.226C2594.39 209.973 2618.28 206.256 2640.44 197.36L3047.76 33.8005Z" fill="#FFD4C4"/>
</svg>
