<svg id="visual" viewBox="0 0 1400 1000" width="1400" height="1000" xmlns="http://www.w3.org/2000/svg" xmlns:xlink="http://www.w3.org/1999/xlink" version="1.1"><path d="M0 952L38.8 954.8C77.7 957.7 155.3 963.3 233.2 966.7C311 970 389 971 466.8 968C544.7 965 622.3 958 700 953.5C777.7 949 855.3 947 933.2 949.2C1011 951.3 1089 957.7 1166.8 955.2C1244.7 952.7 1322.3 941.3 1361.2 935.7L1400 930L1400 1001L1361.2 1001C1322.3 1001 1244.7 1001 1166.8 1001C1089 1001 1011 1001 933.2 1001C855.3 1001 777.7 1001 700 1001C622.3 1001 544.7 1001 466.8 1001C389 1001 311 1001 233.2 1001C155.3 1001 77.7 1001 38.8 1001L0 1001Z" fill="#553b31" stroke-linecap="round" stroke-linejoin="miter"></path></svg>